# xmcd
#
# Track frame offsets:
#	150
#	19841
#	36432
#	54281
#	73048
#	90555
#	111247
#	132113
#	146732
#	163406
#	183323
#	202177
#
# Disc length: 3186 seconds
#
# Revision: 1
# Processed by: cddbd v1.5.2PL0 Copyright (c) Steve Scherf et al.
# Submitted via: audiograbber 1.83.01
#
DISCID=b20c700c
DTITLE=Michael Bryers - Somewhere In Between
DYEAR=2002
DGENRE=Country
TTITLE0=Those Were The Days
TTITLE1=Fall Like Rain
TTITLE2=All Because Of You
TTITLE3=Nothing To Lose
TTITLE4=Million Words
TTITLE5=Cigarette Breath
TTITLE6=Great Divide
TTITLE7=Somewhere In Between
TTITLE8=If I Live
TTITLE9=2 Lost Souls (At The Bushtop Tonight)
TTITLE10=Last Breath
TTITLE11=Bonus Track - Track 12
EXTD=
EXTT0=
EXTT1=
EXTT2=
EXTT3=
EXTT4=
EXTT5=
EXTT6=
EXTT7=
EXTT8=
EXTT9=
EXTT10=
EXTT11=
PLAYORDER=
